<svg id="Capa_1" enable-background="new 0 0 501 501" height="512" viewBox="0 0 501 501" width="512" xmlns="http://www.w3.org/2000/svg"><path d="m1.504 228.699c13.577-122.46 117.414-217.699 243.495-217.699 135.497 0 245.719 110.837 244.997 246.332-.289 54.225-18.193 104.28-48.282 144.735-6.637 8.923-20.819 4.229-20.819-6.892 0-76.864-62.311-139.175-139.175-139.175h-255.616c-14.675 0-26.217-12.715-24.6-27.301z" fill="#54469b"/><path d="m442 96.236v305.447c-44.634 60.256-116.255 99.317-197 99.317-135.31 0-245-109.69-245-245 0-1.979.024-3.951.071-5.918-.024-.027-.048-.055-.071-.082v-153.764c0-13.124 10.639-23.763 23.763-23.763h24.952c6.562 0 11.882 5.319 11.882 11.881v11.882c0 13.125 10.639 23.764 23.763 23.764h23.763c13.124 0 23.764-10.639 23.764-23.764v-11.881c0-6.562 5.32-11.882 11.882-11.882h29.704c6.562 0 11.882 5.32 11.882 11.882v11.881c0 13.125 10.639 23.764 23.763 23.764h23.763c13.124 0 23.763-10.639 23.763-23.764v-11.881c0-6.562 5.32-11.882 11.882-11.882h29.704c6.562 0 11.882 5.32 11.882 11.882v11.881c0 13.125 10.639 23.764 23.764 23.764h23.763c13.124 0 23.764-10.639 23.763-23.764v-11.882c0-6.562 5.32-11.881 11.882-11.881h24.951c13.126 0 23.765 10.639 23.765 23.763z" fill="#fdbf43"/><path d="m60.559 179.213v238.056c-37.708-43.09-60.559-99.511-60.559-161.269 0-1.979.024-3.951.071-5.918-.024-.027-.048-.055-.071-.082v-153.764c0-13.124 10.639-23.763 23.763-23.763h24.952c6.241 0 11.357 4.811 11.844 10.927v95.811c-.001 0 0 .001 0 .002z" fill="#f4aa39"/><path d="m309 395v20c0 8.284-6.716 15-15 15h-40c-8.284 0-15-6.716-15-15v-20c0-8.284 6.716-15 15-15h40c8.284 0 15 6.716 15 15zm85-85h-40c-8.284 0-15 6.716-15 15v20c0 8.284 6.716 15 15 15h40c8.284 0 15-6.716 15-15v-20c0-8.284-6.716-15-15-15zm-180-110h-40c-8.284 0-15 6.716-15 15v20c0 8.284 6.716 15 15 15h40c8.284 0 15-6.716 15-15v-20c0-8.284-6.716-15-15-15zm-90 0h-40c-8.284 0-15 6.716-15 15v20c0 8.284 6.716 15 15 15h40c8.284 0 15-6.716 15-15v-20c0-8.284-6.716-15-15-15zm270 0h-40c-8.284 0-15 6.716-15 15v20c0 8.284 6.716 15 15 15h40c8.284 0 15-6.716 15-15v-20c0-8.284-6.716-15-15-15z" fill="#fc9302"/><path d="m174.638 194.132 32.299 65.444c6.478 13.127 19.001 22.225 33.487 24.33l72.222 10.494c6.08.883 8.508 8.355 4.108 12.644l-52.26 50.941c-10.482 10.218-15.265 24.939-12.791 39.367l12.337 71.93c1.039 6.055-5.317 10.673-10.755 7.814l-64.597-33.961c-12.957-6.812-28.436-6.812-41.392 0l-64.597 33.961c-5.438 2.859-11.794-1.759-10.755-7.814l12.337-71.93c2.475-14.428-2.309-29.149-12.791-39.367l-52.26-50.941c-4.399-4.288-1.972-11.76 4.108-12.644l72.222-10.494c14.486-2.105 27.009-11.203 33.487-24.33l32.299-65.444c2.717-5.509 10.573-5.509 13.292 0z" fill="#fdf385"/><path d="m316.753 307.044-52.26 50.941c-10.482 10.218-15.265 24.939-12.791 39.366l.236 1.374c-64.647-13.258-116.509-61.585-134.836-124.229 4.945-3.993 9.048-9.053 11.944-14.92l32.298-65.444c2.719-5.509 10.575-5.509 13.294 0l32.299 65.444c6.478 13.127 19.001 22.225 33.487 24.33l72.222 10.494c6.079.884 8.507 8.355 4.107 12.644z" fill="#fdf7bd"/><path d="m397.36 160.208-56.569-56.569 91.924-91.924c15.621-15.621 40.948-15.621 56.568 0 15.621 15.621 15.621 40.948 0 56.568zm-246.753 211.399 98.995-98.995c5.858-5.858 5.858-15.355 0-21.213-5.858-5.858-15.355-5.858-21.213 0l-98.995 98.995c-5.858 5.858-5.858 15.355 0 21.213 5.857 5.857 15.355 5.857 21.213 0z" fill="#e659a9"/><path d="m453.777 32.777-91.924 91.924-21.062-21.062 91.924-91.924c15.621-15.621 40.948-15.621 56.568 0 3.723 3.723 6.548 8.001 8.497 12.564-14.581-6.225-32.105-3.4-44.003 8.498z" fill="#df3d9b"/><path d="m175 326c-19.882-19.882-19.882-52.118 0-72l228.787-228.787c7.81-7.81 20.474-7.81 28.284 0l43.716 43.716c7.81 7.81 7.81 20.474 0 28.284l-228.787 228.787c-19.882 19.882-52.118 19.882-72 0z" fill="#fd4343"/><path d="m192.54 337.46c-6.39-2.481-12.381-6.301-17.54-11.46-19.882-19.882-19.882-52.118 0-72l228.787-228.787c7.81-7.81 20.474-7.81 28.284 0l43.716 43.716c.001.001.002.002.003.003l-14.719-14.719c-7.811-7.811-20.474-7.811-28.284 0l-228.787 228.787c-14.723 14.724-18.543 36.221-11.46 54.46z" fill="#d00041"/></svg>